<svg width="221" height="192" viewBox="0 0 221 192" fill="none" xmlns="http://www.w3.org/2000/svg">
<path d="M190.72 159.558C190.735 158.788 191.578 158.324 192.237 158.722L204.801 166.315C205.459 166.713 205.44 167.675 204.766 168.047L191.908 175.131C191.233 175.502 190.41 175.005 190.425 174.235L190.72 159.558Z" fill="#B4B6BB"/>
<path d="M21.1997 31.3727C21.1997 31.3727 30.9904 70.2746 43.212 85.9882C67.7162 117.494 147.073 142.155 151.512 102.762C155.374 68.4993 117.831 53.0768 95.6192 65.9254C69.9561 80.7707 96.7923 131.052 124.41 152.657C149.627 172.384 194.882 166.69 194.882 166.69" stroke="#B4B6BB" stroke-width="2" stroke-linecap="round"/>
</svg>
